<?xml version="1.0" encoding="utf-8"?>
<!-- Generator: Adobe Illustrator 25.0.0, SVG Export Plug-In . SVG Version: 6.00 Build 0)  -->
<svg version="1.1" id="Layer_1" xmlns="http://www.w3.org/2000/svg" xmlns:xlink="http://www.w3.org/1999/xlink" x="0px" y="0px"
	 viewBox="0 0 101.3 36" style="enable-background:new 0 0 101.3 36;" xml:space="preserve">
<style type="text/css">
	.st0{fill:#0079C1;}
	.st1{fill:#ED1C24;}
	.st2{fill:#FFFFFF;}
</style>
<g>
	<path class="st0" d="M11.2,14.1c0,1.8-0.8,2.8-3,2.8H6.3v-5.6c0.2,0,1,0,1.3,0h0.6C10.4,11.3,11.2,12.3,11.2,14.1z M15.7,21.4
		c0-2.9-2.4-3.9-5.2-4v-0.1c2.4-0.2,4.4-1.2,4.4-3.7c0-2.7-2.2-3.2-4.8-3.2c-3,0-6.6,0.1-9.6,0v0.9c0.6,0,2.2,0,2.2,0.9v11.6
		c0,0.8-1.6,0.9-2.2,0.9v0.9c2.9-0.1,6.4,0,9.3,0C12.9,25.6,15.7,24.5,15.7,21.4z M11.8,21.1c0,2.4-0.8,3.5-3.7,3.5H6.3v-6.7h1.9
		C10.8,17.9,11.8,18.8,11.8,21.1L11.8,21.1z"/>
	<path class="st0" d="M35.2,25.6c-1.4,0-2.7,0-4.1,0v-0.9c0.6,0,2.3,0,2.3-0.9V13h0l-6.1,12.8h-0.7l-6-12.8h0v10.8
		c0,0.9,1.7,0.9,2.3,0.9l0,0.9c-1.7,0-4-0.1-5.7,0v-0.9c0.6,0,2.1,0,2.1-0.9V12.2c0-0.8-1.5-0.9-2.1-0.9v-0.9c1.9,0.1,4,0.1,5.9,0
		l5.1,10.8l5.2-10.7c1.9,0.1,4,0.1,5.8,0v0.9c-0.6,0-2.2,0-2.2,0.9v11.6c0,0.8,1.6,0.9,2.2,0.9v0.9C38,25.5,36.6,25.6,35.2,25.6z"/>
	<path class="st0" d="M53.6,18c0,2.9-0.3,6.9-4.6,6.9s-4.6-4-4.6-7S44.7,11,49,11C53.3,11,53.6,15.1,53.6,18z M57.6,18
		c0-5-3.1-7.9-8.6-7.9s-8.6,2.8-8.6,7.9s3.1,7.9,8.6,7.9C54.6,25.8,57.6,23,57.6,18z"/>
	<path class="st1" d="M83.3,0.5c-9.7,0-17.5,7.8-17.5,17.5c0,9.7,7.8,17.5,17.5,17.5s17.5-7.8,17.5-17.5C100.8,8.3,93,0.5,83.3,0.5z
		"/>
	<path class="st2" d="M82.8,12.6l-3-4c-0.1-0.2-0.3-0.3-0.5-0.3s-0.4,0.1-0.5,0.3l-3.6,4.6v7.1l3.6-4.6c0.1-0.2,0.3-0.3,0.6-0.3
		s0.4,0.1,0.6,0.3l3.1,4c0.1,0.1,0.3,0.2,0.5,0.2c0.2,0,0.4-0.1,0.5-0.2l3.1-4c0.1-0.2,0.3-0.3,0.6-0.3c0.2,0,0.4,0.1,0.6,0.3
		l3.6,4.6v-7.1L88,8.7c-0.1-0.2-0.3-0.3-0.5-0.3S87,8.5,86.9,8.7l-3,4c-0.1,0.2-0.3,0.3-0.5,0.3C83.1,12.9,82.9,12.8,82.8,12.6z
		 M91.6,25.6H75.1v-5.2h16.5V25.6z"/>
</g>
</svg>
