<?xml version="1.0" encoding="utf-8"?>
<!-- Generator: Adobe Illustrator 25.0.0, SVG Export Plug-In . SVG Version: 6.00 Build 0)  -->
<svg version="1.1" id="Layer_1" xmlns="http://www.w3.org/2000/svg" xmlns:xlink="http://www.w3.org/1999/xlink" x="0px" y="0px"
	 viewBox="0 0 36 36" style="enable-background:new 0 0 36 36;" xml:space="preserve">
<style type="text/css">
	.st0{fill:#646C76;}
</style>
<g>
	<path class="st0" d="M31,5.1h-2.8V2c0-0.8-0.6-1.4-1.4-1.4S25.4,1.2,25.4,2v3.1H9.9V2c0-0.8-0.6-1.4-1.4-1.4C7.7,0.6,7.1,1.2,7.1,2
		v3.1H5c-1.5,0-2.8,1.2-2.8,2.8V32c0,1.5,1.2,2.8,2.8,2.8h26c1.5,0,2.8-1.2,2.8-2.8V7.8C33.7,6.3,32.5,5.1,31,5.1z M31.4,32
		c0,0.2-0.2,0.4-0.4,0.4H5c-0.2,0-0.4-0.2-0.4-0.4V12.7c0-0.3,0.2-0.5,0.5-0.5h25.8c0.3,0,0.5,0.2,0.5,0.5V32z"/>
</g>
<path class="st0" d="M22.2,21.5H19v-3.2c0-0.6-0.4-1-1-1s-1,0.4-1,1v3.2h-3.2c-0.6,0-1,0.4-1,1s0.4,1,1,1H17v3.2c0,0.6,0.4,1,1,1
	s1-0.4,1-1v-3.2h3.2c0.6,0,1-0.4,1-1S22.7,21.5,22.2,21.5z"/>
</svg>
