<?xml version="1.0" encoding="utf-8"?>
<!-- Generator: Adobe Illustrator 25.0.0, SVG Export Plug-In . SVG Version: 6.00 Build 0)  -->
<svg version="1.1" id="Layer_1" xmlns="http://www.w3.org/2000/svg" xmlns:xlink="http://www.w3.org/1999/xlink" x="0px" y="0px"
	 viewBox="0 0 36 36" style="enable-background:new 0 0 36 36;" xml:space="preserve">
<style type="text/css">
	.st0{fill:#646C76;}
</style>
<g>
	<path class="st0" d="M31.8,14.4h-0.2C31.5,7,25.4,0.9,18,0.9S4.5,7,4.5,14.4H4.2c-2,0-3.6,1.6-3.6,3.6v4.1c0,2,1.6,3.6,3.6,3.6h2.6
		c0.7,0,1.2-0.5,1.2-1.2v-9c0-0.7-0.5-1.2-1.2-1.2h0c0-6.2,5-11.1,11.2-11.1s11.2,5,11.2,11.1h0c-0.7,0-1.2,0.5-1.2,1.2v9
		c0,0.7,0.5,1.2,1.2,1.2c-0.3,2.5-2.4,4.5-5,4.5h-1.4c-0.5-1.5-1.9-2.7-3.6-2.7c-2.1,0-3.7,1.7-3.7,3.7c0,2.1,1.7,3.7,3.7,3.7
		c1.6,0,3-1,3.5-2.5h1.5c3.9,0,7.1-3,7.3-6.8h0.3c2,0,3.6-1.6,3.6-3.6V18C35.4,16,33.8,14.4,31.8,14.4z"/>
	<circle class="st0" cx="14.4" cy="15.1" r="1.9"/>
	<circle class="st0" cx="21.6" cy="15.1" r="1.9"/>
	<path class="st0" d="M23.4,22.2c0.4-0.4,0.4-1,0.1-1.4c-0.4-0.4-1-0.4-1.4-0.1c-1.1,1-2.6,1.5-4.1,1.5c-1.5,0-3-0.6-4.1-1.6
		c-0.4-0.4-1-0.3-1.4,0.1c-0.4,0.4-0.3,1,0.1,1.4c1.5,1.3,3.4,2.1,5.4,2.1C20,24.2,21.9,23.5,23.4,22.2z"/>
</g>
</svg>
