<?xml version="1.0" encoding="utf-8"?>
<!-- Generator: Adobe Illustrator 25.0.0, SVG Export Plug-In . SVG Version: 6.00 Build 0)  -->
<svg version="1.1" id="Layer_1" xmlns="http://www.w3.org/2000/svg" xmlns:xlink="http://www.w3.org/1999/xlink" x="0px" y="0px"
	 viewBox="0 0 35.3 34.9" style="enable-background:new 0 0 35.3 34.9;" xml:space="preserve">
<style type="text/css">
	.st0{fill:#006BA9;}
</style>
<path class="st0" d="M10.7,34.8c0.5,0,0.9-0.3,1.4-0.6l14-15.3c0.6-0.8,0.6-2,0-2.6l-14-15.6c-0.8-0.8-2-0.8-2.7,0
	C9,1,8.7,1.5,8.7,2.1c0,0.5,0.2,1.1,0.5,1.4l13,14l-13,14c-0.3,0.3-0.5,0.8-0.5,1.4c0,0,0,0,0,0.2c0,0.5,0.3,0.9,0.6,1.4
	C9.6,34.6,10.1,34.8,10.7,34.8z"/>
</svg>
